<svg width="314" height="314" viewBox="0 0 314 314" fill="none" xmlns="http://www.w3.org/2000/svg">
<rect x="66.4904" y="0.232605" width="256" height="256" rx="60" transform="rotate(15 66.4904 0.232605)" fill="url(#paint0_linear_311_8)"/>
<rect x="86.7638" y="35" width="200" height="200" rx="50" transform="rotate(15 86.7638 35)" fill="#111827"/>
<path d="M105.82 211.85C96.6714 203.166 89.8607 192.316 86.0177 180.303C82.1748 168.289 81.4237 155.501 83.834 143.12C86.2443 130.739 91.7381 119.166 99.8071 109.472C107.876 99.7775 118.26 92.2747 129.997 87.6575C141.735 83.0404 154.448 81.4581 166.959 83.0569C179.471 84.6558 191.377 89.3843 201.576 96.8048C211.775 104.225 219.938 114.098 225.31 125.51C230.682 136.923 233.089 149.505 232.308 162.094L203.992 160.338C204.478 152.511 202.981 144.688 199.641 137.593C196.302 130.498 191.226 124.359 184.885 119.746C178.544 115.132 171.142 112.192 163.363 111.198C155.584 110.204 147.68 111.188 140.383 114.059C133.085 116.929 126.629 121.594 121.612 127.621C116.596 133.649 113.18 140.844 111.682 148.541C110.183 156.239 110.65 164.19 113.039 171.659C115.428 179.128 119.663 185.874 125.351 191.273L105.82 211.85Z" fill="url(#paint1_linear_311_8)"/>
<defs>
<linearGradient id="paint0_linear_311_8" x1="180.702" y1="-0.814306" x2="220.985" y2="333.365" gradientUnits="userSpaceOnUse">
<stop offset="0.333333" stop-color="#00AEA4"/>
<stop offset="1" stop-color="#225D70"/>
</linearGradient>
<linearGradient id="paint1_linear_311_8" x1="174.294" y1="85.374" x2="139.675" y2="239.162" gradientUnits="userSpaceOnUse">
<stop offset="0.182292" stop-color="#00AEA4"/>
<stop offset="0.96875" stop-color="#3590AC"/>
</linearGradient>
</defs>
</svg>
